<?xml version="1.0" encoding="utf-8"?>
<!-- Generator: Adobe Illustrator 18.1.0, SVG Export Plug-In . SVG Version: 6.00 Build 0)  -->
<svg version="1.1" id="Layer_1" xmlns="http://www.w3.org/2000/svg" xmlns:xlink="http://www.w3.org/1999/xlink" x="0px" y="0px"
	 viewBox="0 0 1500 1500" enable-background="new 0 0 1500 1500" xml:space="preserve">
<g>
	<path fill="#559FD7" d="M1453,577.9c-41-194-181.8-296.7-215.2-315.6c-102.3-57.9-345.6-114.7-468.4,41.2
		c-34.7,44.1-23.1,98.8-7.1,137.1c4.2,10.1,9.3,20,14.8,29.7c-9,18.8-14.9,38.8-17.2,59.7c-16.6-22.6-30.6-46.6-40.9-71.3
		c-12-28.8-18-56.7-18.7-82.9c-268.2,0-574.4,149.5-594.3,418.4c-0.6,8.6,4.7,16.6,12.9,19.3c8.2,2.7,17.2-0.4,21.9-7.7
		c16.5-25.9,37-53.9,57.3-71.5c2.9,42.4,15.8,82.8,38,119.8c44.5,74,68.3,158.9,68.3,245.3l0.4,159.3c2.3,19.5,48.4,35.1,105.4,35.1
		c57,0,103.1-15.6,105.4-35.1l0.4-103.4c0-27.1,11.3-53.1,31.2-71.6c19.9-18.5,46.6-25.9,73.7-25.9c16.9,0,51.3,0,53.3,0
		c26-0.3,51.1,11.7,69.6,30c18.5,18.3,28.9,43.3,28.9,69.4l0.4,101.5c2.3,19.5,48.4,35.1,105.4,35.1c57,0,103.1-15.6,105.4-35.1
		l0.4-89.3c0-72.9,14.7-134.6,36.5-186.2c-62-27-116.4-72.8-153.3-135.3c-27.1-45.8-40-97.3-38-149.3c0.8-19.3,3.5-38.6,8.4-57.8
		c2.1-8.3,4.7-16.5,7.5-24.5c5.4-15.2,12.2-29.8,20.1-43.7c23.2-40.6,56.5-74.7,97.8-99.1c12.7-7.5,25.9-13.6,39.4-18.4
		c27.3-9.7,55.7-13.8,83.8-12.8c16.4,0.6,32.7,3,48.6,7.1c55.6,14.5,105.7,50,137.2,103.2c10.3,17.4,17.4,35.8,21.5,54.6
		c8.6,38.8,4.4,79-11,114.8c-15.1,35.2-40.9,66.1-76.3,87.1c-25.3,15-53.2,21.8-80.7,21.7c-47.4-0.3-93.6-22-123.6-61.4
		c-3.7-4.9-7.2-9.9-10.4-15.3c-13.9-23.5-19.7-49.5-18.2-74.9c0.9-15.8,4.7-31.2,11.1-45.6c10.7-24.5,28.8-46,53.5-60.7
		c16.7-9.9,34.9-14.9,53.1-15.6c15.8-0.6,31.6,2.3,46.2,8.1c22.3,8.9,42,24.8,55.1,47c22.5,38.1,16.5,86.6-14.7,117.9
		c-5.8,5.8-13.9,8.6-22.1,7.6c-8.1-1-15.4-5.7-19.6-12.8l-8.5-14.3l0,0c-5.8-9.7-4.7-22.1,2.6-30.7c7.8-9.2,8.9-22.3,2.8-32.6
		c-4.1-7-10-12.2-16.6-15.8c-13.1-7.2-29.6-7.7-43.4,0.5c-18.9,11.2-29.9,30.8-30.9,51.3c-0.6,12,2.1,24.3,8.7,35.4
		c13.6,23,36.2,37.5,60.7,41.7c19.8,3.4,40.9,0.1,59.6-10.9c13.7-8.1,25.2-18.6,34.2-30.7c27.9-37.2,32.4-89,7.3-131.4
		c-17.5-29.5-43.2-51-72.5-63.7c-15-6.5-30.9-10.6-47.2-12.2c-31.9-3.1-65,3.3-94.7,20.9c-32,19-57.5,45.8-74.9,77.6
		c-7.5,13.7-13.5,28.3-17.7,43.6c-0.4,1.3-0.8,2.5-1.2,3.8c-7.4,28.7-8.2,58-3.1,86.3c4.2,23.8,12.6,47,25.2,68.4
		c30.1,50.9,74.8,88,125.7,109.1c74.3,30.8,161.6,27.6,236-16.4c83.6-49.5,138.3-129.3,158-217.3c0.4-1.9,0.8-3.8,1.2-5.7
		C1454.9,648.2,1456.7,613,1453,577.9z"/>
</g>
</svg>
